HIERARCHY
ROOT Model
{
	OFFSET 0 0 0
	CHANNELS 6 Xposition Yposition Zposition Zrotation Xrotation Yrotation
	JOINT Model1
	{
		OFFSET 0 -2.25479 2.99383
		CHANNELS 3 Zrotation Xrotation Yrotation
		JOINT Model2
		{
			OFFSET 12.111 0 0
			CHANNELS 3 Zrotation Xrotation Yrotation
			JOINT Model3
			{
				OFFSET 11.5502 0 0
				CHANNELS 3 Zrotation Xrotation Yrotation
				JOINT Model4
				{
					OFFSET 11.781 0 0
					CHANNELS 3 Zrotation Xrotation Yrotation
					JOINT Model5
					{
						OFFSET 20.0601 0 0
						CHANNELS 3 Zrotation Xrotation Yrotation
						JOINT Model6
						{
							OFFSET 11.1962 0 0
							CHANNELS 3 Zrotation Xrotation Yrotation
							End Site
							{
								OFFSET 0 0 0
							}
						}
					}
					JOINT Model7
					{
						OFFSET 10.8223 0.417538 3.51114
						CHANNELS 3 Zrotation Xrotation Yrotation
						JOINT Model8
						{
							OFFSET -6.07943 0 0
							CHANNELS 3 Zrotation Xrotation Yrotation
							JOINT Model9
							{
								OFFSET -0.277412 10.39 -0.0512428
								CHANNELS 3 Zrotation Xrotation Yrotation
								JOINT Model10
								{
									OFFSET -3.4391 -0.282043 1.86678
									CHANNELS 3 Zrotation Xrotation Yrotation
									JOINT Model11
									{
										OFFSET 13.0269 0 0
										CHANNELS 3 Zrotation Xrotation Yrotation
										JOINT Model12
										{
											OFFSET 10.8866 0 0
											CHANNELS 3 Zrotation Xrotation Yrotation
											JOINT Model13
											{
												OFFSET 16.7317 0 0
												CHANNELS 3 Zrotation Xrotation Yrotation
												JOINT Model14
												{
													OFFSET 11.8292 0 0
													CHANNELS 3 Zrotation Xrotation Yrotation
													JOINT Model15
													{
														OFFSET 4.82751 -3.73566 -0.836517
														CHANNELS 3 Zrotation Xrotation Yrotation
														JOINT Model16
														{
															OFFSET 3.75311 -0.0582924 -0.0186462
															CHANNELS 3 Zrotation Xrotation Yrotation
															JOINT Model17
															{
																OFFSET 2.88689 0.0192337 0.014801
																CHANNELS 3 Zrotation Xrotation Yrotation
																End Site
																{
																	OFFSET 0 0 0
																}
															}
														}
													}
													JOINT Model18
													{
														OFFSET 9.72198 -3.06458 0.238766
														CHANNELS 3 Zrotation Xrotation Yrotation
														JOINT Model19
														{
															OFFSET 4.61131 0 0
															CHANNELS 3 Zrotation Xrotation Yrotation
															JOINT Model20
															{
																OFFSET 2.8969 -1.14441e-005 0
																CHANNELS 3 Zrotation Xrotation Yrotation
																End Site
																{
																	OFFSET 0 0 0
																}
															}
														}
													}
													JOINT Model21
													{
														OFFSET 9.5443 -0.745064 0.588936
														CHANNELS 3 Zrotation Xrotation Yrotation
														JOINT Model22
														{
															OFFSET 5.33978 0 0
															CHANNELS 3 Zrotation Xrotation Yrotation
															JOINT Model23
															{
																OFFSET 3.03619 1.14441e-005 0
																CHANNELS 3 Zrotation Xrotation Yrotation
																End Site
																{
																	OFFSET 0 0 0
																}
															}
														}
													}
													JOINT Model24
													{
														OFFSET 9.47759 1.51286 0.485119
														CHANNELS 3 Zrotation Xrotation Yrotation
														JOINT Model25
														{
															OFFSET 4.96136 1.14441e-005 0
															CHANNELS 3 Zrotation Xrotation Yrotation
															JOINT Model26
															{
																OFFSET 2.51965 0 0
																CHANNELS 3 Zrotation Xrotation Yrotation
																End Site
																{
																	OFFSET 0 0 0
																}
															}
														}
													}
													JOINT Model27
													{
														OFFSET 9.34248 3.34117 -0.239281
														CHANNELS 3 Zrotation Xrotation Yrotation
														JOINT Model28
														{
															OFFSET 3.28259 2.67029e-005 0
															CHANNELS 3 Zrotation Xrotation Yrotation
															JOINT Model29
															{
																OFFSET 2.1292 0 0
																CHANNELS 3 Zrotation Xrotation Yrotation
																End Site
																{
																	OFFSET 0 0 0
																}
															}
														}
													}
												}
											}
										}
									}
								}
							}
						}
					}
					JOINT Model30
					{
						OFFSET 10.8223 0.417904 -3.51107
						CHANNELS 3 Zrotation Xrotation Yrotation
						JOINT Model31
						{
							OFFSET 6.07943 0 0
							CHANNELS 3 Zrotation Xrotation Yrotation
							JOINT Model32
							{
								OFFSET 0.277412 -10.39 0.0512428
								CHANNELS 3 Zrotation Xrotation Yrotation
								JOINT Model33
								{
									OFFSET 3.4391 0.282043 -1.86678
									CHANNELS 3 Zrotation Xrotation Yrotation
									JOINT Model34
									{
										OFFSET -13.0269 0 0
										CHANNELS 3 Zrotation Xrotation Yrotation
										JOINT Model35
										{
											OFFSET -10.8866 0 0
											CHANNELS 3 Zrotation Xrotation Yrotation
											JOINT Model36
											{
												OFFSET -16.7317 0 0
												CHANNELS 3 Zrotation Xrotation Yrotation
												JOINT Model37
												{
													OFFSET -11.8292 0 0
													CHANNELS 3 Zrotation Xrotation Yrotation
													JOINT Model38
													{
														OFFSET -4.82751 3.73566 0.836517
														CHANNELS 3 Zrotation Xrotation Yrotation
														JOINT Model39
														{
															OFFSET -3.75311 0.0582848 0.0186424
															CHANNELS 3 Zrotation Xrotation Yrotation
															JOINT Model40
															{
																OFFSET -2.88688 -0.0192375 -0.014801
																CHANNELS 3 Zrotation Xrotation Yrotation
																End Site
																{
																	OFFSET 0 0 0
																}
															}
														}
													}
													JOINT Model41
													{
														OFFSET -9.72197 3.06459 -0.23877
														CHANNELS 3 Zrotation Xrotation Yrotation
														JOINT Model42
														{
															OFFSET -4.6113 0 0
															CHANNELS 3 Zrotation Xrotation Yrotation
															JOINT Model43
															{
																OFFSET -2.8969 0 0
																CHANNELS 3 Zrotation Xrotation Yrotation
																End Site
																{
																	OFFSET 0 0 0
																}
															}
														}
													}
													JOINT Model44
													{
														OFFSET -9.5443 0.745064 -0.58894
														CHANNELS 3 Zrotation Xrotation Yrotation
														JOINT Model45
														{
															OFFSET -5.33978 0 0
															CHANNELS 3 Zrotation Xrotation Yrotation
															JOINT Model46
															{
																OFFSET -3.03619 -1.52588e-005 0
																CHANNELS 3 Zrotation Xrotation Yrotation
																End Site
																{
																	OFFSET 0 0 0
																}
															}
														}
													}
													JOINT Model47
													{
														OFFSET -9.47759 -1.51286 -0.485123
														CHANNELS 3 Zrotation Xrotation Yrotation
														JOINT Model48
														{
															OFFSET -4.96136 -1.52588e-005 0
															CHANNELS 3 Zrotation Xrotation Yrotation
															JOINT Model49
															{
																OFFSET -2.51966 0 0
																CHANNELS 3 Zrotation Xrotation Yrotation
																End Site
																{
																	OFFSET 0 0 0
																}
															}
														}
													}
													JOINT Model50
													{
														OFFSET -9.34246 -3.34118 0.239277
														CHANNELS 3 Zrotation Xrotation Yrotation
														JOINT Model51
														{
															OFFSET -3.2826 -1.90735e-005 0
															CHANNELS 3 Zrotation Xrotation Yrotation
															JOINT Model52
															{
																OFFSET -2.1292 0 0
																CHANNELS 3 Zrotation Xrotation Yrotation
																End Site
																{
																	OFFSET 0 0 0
																}
															}
														}
													}
												}
											}
										}
									}
								}
							}
						}
					}
				}
			}
		}
	}
	JOINT Model53
	{
		OFFSET 4.38026 -2.14632 -1.11516
		CHANNELS 3 Zrotation Xrotation Yrotation
		JOINT Model54
		{
			OFFSET 0 0 4.94999
			CHANNELS 3 Zrotation Xrotation Yrotation
			JOINT Model55
			{
				OFFSET 18.5642 0 0
				CHANNELS 3 Zrotation Xrotation Yrotation
				JOINT Model56
				{
					OFFSET 21.2884 0 1.14441e-005
					CHANNELS 3 Zrotation Xrotation Yrotation
					JOINT Model57
					{
						OFFSET 30.261 0 0
						CHANNELS 3 Zrotation Xrotation Yrotation
						JOINT Model58
						{
							OFFSET 11.7259 0 0
							CHANNELS 3 Zrotation Xrotation Yrotation
							JOINT Model59
							{
								OFFSET 10.682 0 0
								CHANNELS 3 Zrotation Xrotation Yrotation
								End Site
								{
									OFFSET 0 0 0
								}
							}
						}
					}
				}
			}
		}
	}
	JOINT Model60
	{
		OFFSET -4.38026 -2.14632 -1.11516
		CHANNELS 3 Zrotation Xrotation Yrotation
		JOINT Model61
		{
			OFFSET 0 0 -4.94999
			CHANNELS 3 Zrotation Xrotation Yrotation
			JOINT Model62
			{
				OFFSET -18.5642 0 0
				CHANNELS 3 Zrotation Xrotation Yrotation
				JOINT Model63
				{
					OFFSET -21.2884 0 -1.14441e-005
					CHANNELS 3 Zrotation Xrotation Yrotation
					JOINT Model64
					{
						OFFSET -30.261 0 0
						CHANNELS 3 Zrotation Xrotation Yrotation
						JOINT Model65
						{
							OFFSET -11.7259 0 0
							CHANNELS 3 Zrotation Xrotation Yrotation
							JOINT Model66
							{
								OFFSET -10.682 0 0
								CHANNELS 3 Zrotation Xrotation Yrotation
								End Site
								{
									OFFSET 0 0 0
								}
							}
						}
					}
				}
			}
		}
	}
}
MOTION
Frames: 5
Frame Time: 0.033333
42.0314 135.627 40.7838 -94.6653 -32.5292 -98.5189 -180 -6.53164e-013 -90 7.69432 0.543006 -2.87053 15.4065 0.695826 -5.78808 15.4065 0.696247 -5.78819 -7.42637 16.5547 -10.2842 -11.3053 12.7126 3.88328 120.092 75.5343 58.4939 3.7436 -22.136 -6.71516 -167.277 84.4999 48.8109 177.506 -25.8624 11.4082 1.15082e-005 -19.6392 2.38014e-005 -136.188 -4.48758 0.422704 -3.86931e-007 -6.1296 -7.11547e-007 -1.04254 -0.355974 37.7036 -72.0648 39.0385 39.3397 33.3638 2.10362 14.835 0.588947 0.308273 6.35287 -99.6409 81.413 100.35 -0.0181409 2.77985e-005 -0.117315 -0.124139 0.00241115 -0.799296 -79.8382 79.5773 80.5374 -0.000225775 -0.000220904 2.22449e-005 -0.000956224 0.00012292 -2.72524e-005 -66.7416 80.4058 67.2171 -0.000437129 1.5965e-005 -2.72703e-005 -0.000136599 -0.000109265 -5.45732e-005 -6.42159 81.2158 8.01779 -0.000218558 1.69268e-005 0.000212191 0.000901596 -0.000184776 -0.000218497 -59.9282 75.5373 58.5147 22.5817 40.8161 1.02371 -167.277 84.4999 48.8109 111.536 -11.6709 3.0755 6.94178e-006 -0.0070397 2.91652e-005 -128.541 0.777627 0.476457 -5.86443e-007 1.56323 1.92361e-007 -0.0525891 0.00247541 -5.38853 -72.0648 39.0385 39.3397 33.3638 2.10361 14.835 0.588946 0.308273 6.35287 -99.6409 81.413 100.35 -0.0181409 2.99884e-005 -0.117315 -0.124139 0.00241101 -0.799296 -79.8382 79.5773 80.5374 -0.000260586 -0.000218655 2.35766e-005 -0.000956145 0.000122876 -2.73125e-005 -66.7416 80.4058 67.2171 -0.000437071 1.47925e-005 -2.73146e-005 -0.000136521 -0.000109403 -5.46332e-005 -6.42159 81.2158 8.01779 -0.000218496 1.94859e-005 0.000212309 0.000901678 -0.000191371 -0.000218549 0.00081454 0.56661 89.91 -16.5357 -16.3347 -24.8792 -3.51484e-006 -9.36375 -3.06467e-007 37.7715 6.34456 -0.00516079 2.37288e-007 9.44565 3.45077e-007 -40.7582 -11.5678 10.5376 -37.2738 2.61003 -0.253101 -180 -0.566576 -90.09 -17.8097 -4.3859 -14.0749 6.82723e-007 1.81884 -1.1372e-009 33.2936 13.2035 0.255029 6.07617e-007 19.7426 1.23437e-006 -63.9555 4.71607 -3.54769 -35.4947 -5.54444e-007 3.96496e-007 
41.6042 136.903 41.0561 -96.5371 -32.2678 -99.01 -180 -6.53164e-013 -90 8.29288 0.755319 -2.71969 16.6134 1.1093 -5.52027 16.6134 1.10972 -5.52039 -8.53749 15.7205 -8.97307 -10.9233 12.3752 2.56987 120.092 75.5343 58.4939 2.69394 -22.3819 -6.83907 -167.277 84.4999 48.8109 177.513 -23.474 15.8531 1.07496e-005 -17.9012 2.35573e-005 -136.949 -3.44491 0.416347 -3.67193e-007 -4.54507 -7.09711e-007 -1.31169 -0.460245 38.6683 -72.0648 39.0385 39.3397 33.3638 2.10362 14.835 0.588947 0.308273 6.35287 -99.6409 81.413 100.35 -0.0181409 2.77985e-005 -0.117315 -0.124139 0.00241115 -0.799296 -79.8382 79.5773 80.5374 -0.000225775 -0.000220904 2.22449e-005 -0.000956224 0.00012292 -2.72524e-005 -66.7416 80.4058 67.2171 -0.000437129 1.5965e-005 -2.72703e-005 -0.000136599 -0.000109265 -5.45732e-005 -6.42159 81.2158 8.01779 -0.000218558 1.69268e-005 0.000212191 0.000901596 -0.000184776 -0.000218497 -59.9282 75.5373 58.5147 22.6053 40.2064 0.944331 -167.277 84.4999 48.8109 114.664 -11.5629 6.51715 5.99372e-006 1.85479 2.91805e-005 -129.809 1.19648 0.468022 -5.88666e-007 2.22477 1.92435e-007 -0.0525891 0.00247541 -5.38853 -72.0648 39.0385 39.3397 33.3638 2.10361 14.835 0.588946 0.308273 6.35287 -99.6409 81.413 100.35 -0.0181409 2.99884e-005 -0.117315 -0.124139 0.00241101 -0.799296 -79.8382 79.5773 80.5374 -0.000260586 -0.000218655 2.35766e-005 -0.000956145 0.000122876 -2.73125e-005 -66.7416 80.4058 67.2171 -0.000437071 1.47925e-005 -2.73146e-005 -0.000136521 -0.000109403 -5.46332e-005 -6.42159 81.2158 8.01779 -0.000218496 1.94859e-005 0.000212309 0.000901678 -0.000191371 -0.000218549 0.00081454 0.56661 89.91 -18.9932 -18.0122 -28.9485 -3.52082e-006 -10.464 -3.07497e-007 40.9261 7.89221 -0.00553638 2.23046e-007 11.7614 3.47698e-007 -35.5273 -12.3627 12.5562 -35.4947 3.14279e-007 1.77515e-007 -180 -0.566576 -90.09 -11.8597 -5.01525 -13.4006 6.82721e-007 1.7033 -1.13713e-009 26.1924 12.7999 0.619343 6.21077e-007 19.1524 1.22989e-006 -62.6971 3.42136 -2.79174 -35.4947 -5.54098e-007 3.63676e-007 
41.3479 138.602 41.7679 -99.8868 -30.46 -100.095 -180 -6.53164e-013 -90 9.45171 1.1259 -2.56987 18.9479 1.81297 -5.29077 18.9479 1.81338 -5.29091 -11.6268 15.577 -9.1498 -9.96606 11.9749 2.13248 120.092 75.5343 58.4939 2.24097 -23.7619 -7.30557 -167.277 84.4999 48.8109 175.778 -22.3004 19.4236 1.05357e-005 -17.4049 2.34924e-005 -137.434 -2.78845 0.412336 -3.54811e-007 -3.54727 -7.08837e-007 -1.76246 -0.630179 39.347 -72.0648 39.0385 39.3397 33.3638 2.10362 14.835 0.588947 0.308273 6.35287 -99.6409 81.413 100.35 -0.0181409 2.77985e-005 -0.117315 -0.124139 0.00241115 -0.799296 -79.8382 79.5773 80.5374 -0.000225775 -0.000220904 2.22449e-005 -0.000956224 0.00012292 -2.72524e-005 -66.7416 80.4058 67.2171 -0.000437129 1.5965e-005 -2.72703e-005 -0.000136599 -0.000109265 -5.45732e-005 -6.42159 81.2158 8.01779 -0.000218558 1.69268e-005 0.000212191 0.000901596 -0.000184776 -0.000218497 -59.9282 75.5373 58.5147 26.025 38.0154 -0.933833 -167.277 84.4999 48.8109 115.677 -11.9057 10.2806 5.45609e-006 2.90914 2.92029e-005 -130.522 1.39198 0.463183 -5.89715e-007 2.53682 1.92478e-007 -0.0525891 0.00247541 -5.38853 -72.0648 39.0385 39.3397 33.3638 2.10361 14.835 0.588946 0.308273 6.35287 -99.6409 81.413 100.35 -0.0181409 2.99884e-005 -0.117315 -0.124139 0.00241101 -0.799296 -79.8382 79.5773 80.5374 -0.000260586 -0.000218655 2.35766e-005 -0.000956145 0.000122876 -2.73125e-005 -66.7416 80.4058 67.2171 -0.000437071 1.47925e-005 -2.73146e-005 -0.000136521 -0.000109403 -5.46332e-005 -6.42159 81.2158 8.01779 -0.000218496 1.94859e-005 0.000212309 0.000901678 -0.000191371 -0.000218549 0.00081454 0.56661 89.91 -17.7852 -19.7079 -31.5836 -3.52335e-006 -10.9268 -3.07967e-007 41.0522 8.65276 -0.00556143 2.15945e-007 12.902 3.49215e-007 -33.4737 -12.4261 13.1656 -35.4947 -1.39408e-007 -1.64461e-008 -180 -0.566576 -90.09 -7.22776 -5.04544 -12.4663 6.82725e-007 1.94472 -1.13728e-009 24.4886 12.731 0.396024 6.23357e-007 19.052 1.22915e-006 -63.1373 5.51714 -4.04299 -35.4947 -5.73733e-007 3.179e-007 
41.5734 140.392 42.6785 -101.153 -29.0772 -101.033 -180 -6.53164e-013 -90 10.0307 1.24427 -2.69476 20.1133 1.99838 -5.56638 20.1133 1.99879 -5.56653 -13.6546 16.0109 -10.2445 -9.37457 11.7491 2.82465 120.092 75.5343 58.4939 2.00032 -24.6758 -7.61966 -167.277 84.4999 48.8109 174.943 -23.3137 19.1643 1.10973e-005 -18.7023 2.36665e-005 -138.825 -3.26248 0.401463 -3.63159e-007 -4.22027 -7.09402e-007 -1.86226 -0.670206 39.5834 -72.0648 39.0385 39.3397 33.3638 2.10362 14.835 0.588947 0.308273 6.35287 -99.6409 81.413 100.35 -0.0181409 2.77985e-005 -0.117315 -0.124139 0.00241115 -0.799296 -79.8382 79.5773 80.5374 -0.000225775 -0.000220904 2.22449e-005 -0.000956224 0.00012292 -2.72524e-005 -66.7416 80.4058 67.2171 -0.000437129 1.5965e-005 -2.72703e-005 -0.000136599 -0.000109265 -5.45732e-005 -6.42159 81.2158 8.01779 -0.000218558 1.69268e-005 0.000212191 0.000901596 -0.000184776 -0.000218497 -59.9282 75.5373 58.5147 28.2169 36.6616 -2.06271 -167.277 84.4999 48.8109 116.129 -12.1597 13.2427 5.04227e-006 3.71937 2.92268e-005 -131.011 1.53662 0.45982 -5.90488e-007 2.76673 1.92514e-007 -0.0525891 0.00247541 -5.38853 -72.0648 39.0385 39.3397 33.3638 2.10361 14.835 0.588946 0.308273 6.35287 -99.6409 81.413 100.35 -0.0181409 2.99884e-005 -0.117315 -0.124139 0.00241101 -0.799296 -79.8382 79.5773 80.5374 -0.000260586 -0.000218655 2.35766e-005 -0.000956145 0.000122876 -2.73125e-005 -66.7416 80.4058 67.2171 -0.000437071 1.47925e-005 -2.73146e-005 -0.000136521 -0.000109403 -5.46332e-005 -6.42159 81.2158 8.01779 -0.000218496 1.94859e-005 0.000212309 0.000901678 -0.000191371 -0.000218549 0.00081454 0.56661 89.91 -15.8879 -19.6818 -30.6838 -3.52128e-006 -10.5484 -3.07581e-007 38.7796 7.83235 -0.00529783 2.23578e-007 11.6755 3.4759e-007 -33.9722 -12.6966 13.3015 -35.4947 -2.34079e-007 -4.93852e-008 -180 -0.566576 -90.09 -6.8796 -5.29134 -13.139 6.8273e-007 2.16461 -1.13744e-009 25.5636 13.0909 -0.0357652 6.11121e-007 19.5894 1.23319e-006 -61.292 4.85449 -3.68607 -35.4947 -6.10353e-007 2.61113e-007 
42.0922 141.88 43.6929 -101.141 -28.4943 -102.503 -180 -6.53164e-013 -90 10.1655 1.11226 -3.18157 20.3801 1.64355 -6.51054 20.3801 1.64396 -6.51069 -14.9786 16.4686 -10.4338 -8.93846 11.8786 3.66148 120.092 75.5343 58.4939 2.62849 -24.6095 -7.55413 -167.277 84.4999 48.8109 174.436 -26.6579 15.6134 1.26966e-005 -22.2871 2.42267e-005 -140.801 -4.90069 0.386094 -3.93101e-007 -6.62314 -7.12232e-007 -0.625761 -0.222542 39.1532 -72.0648 39.0385 39.3397 33.3638 2.10362 14.835 0.588947 0.308273 6.35287 -99.6409 81.413 100.35 -0.0181409 2.77985e-005 -0.117315 -0.124139 0.00241115 -0.799296 -79.8382 79.5773 80.5374 -0.000225775 -0.000220904 2.22449e-005 -0.000956224 0.00012292 -2.72524e-005 -66.7416 80.4058 67.2171 -0.000437129 1.5965e-005 -2.72703e-005 -0.000136599 -0.000109265 -5.45732e-005 -6.42159 81.2158 8.01779 -0.000218558 1.69268e-005 0.000212191 0.000901596 -0.000184776 -0.000218497 -59.9282 75.5373 58.5147 27.8573 36.1805 -1.92644 -167.277 84.4999 48.8109 115.611 -11.9761 13.8193 4.75605e-006 4.27891 2.92467e-005 -131.713 1.67797 0.454927 -5.91264e-007 2.99739 1.92553e-007 -0.0525891 0.00247541 -5.38853 -72.0648 39.0385 39.3397 33.3638 2.10361 14.835 0.588946 0.308273 6.35287 -99.6409 81.413 100.35 -0.0181409 2.99884e-005 -0.117315 -0.124139 0.00241101 -0.799296 -79.8382 79.5773 80.5374 -0.000260586 -0.000218655 2.35766e-005 -0.000956145 0.000122876 -2.73125e-005 -66.7416 80.4058 67.2171 -0.000437071 1.47925e-005 -2.73146e-005 -0.000136521 -0.000109403 -5.46332e-005 -6.42159 81.2158 8.01779 -0.000218496 1.94859e-005 0.000212309 0.000901678 -0.000191371 -0.000218549 0.00081454 0.56661 89.91 -13.6101 -17.1908 -26.6421 -3.50933e-006 -8.34412 -3.05618e-007 35.4939 4.79844 0.14789 2.51335e-007 7.13076 3.43051e-007 -34.0008 -13.5852 14.1813 -35.4947 -1.94689e-007 -1.01687e-008 -180 -0.566576 -90.09 -8.51623 -5.74122 -14.9788 6.82737e-007 2.50684 -1.13772e-009 27.8024 13.259 -0.734084 6.05415e-007 19.8388 1.23512e-006 -60.9423 4.51004 -3.47858 -35.4947 -6.60959e-007 1.95257e-007 
